<svg width="228" height="48" viewBox="0 0 228 48" fill="none" xmlns="http://www.w3.org/2000/svg">
<path d="M135.355 37.9813C133.7 37.9813 132.386 37.4829 131.412 36.486C130.471 35.4559 130 34.027 130 32.1994V0.548288L134.479 0V32.0997C134.479 32.8307 134.593 33.3624 134.82 33.6947C135.079 34.027 135.501 34.1931 136.086 34.1931C136.702 34.1931 137.254 34.0935 137.741 33.8941L138.909 37.0841C137.838 37.6822 136.654 37.9813 135.355 37.9813Z" fill="#422D6D"/>
<path d="M164.229 31.2523C164.229 32.3157 164.408 33.1132 164.765 33.6449C165.122 34.1433 165.657 34.5254 166.371 34.7913L165.349 37.9813C164.018 37.8152 162.947 37.433 162.136 36.8349C161.324 36.2368 160.724 35.3063 160.335 34.0436C158.614 36.6687 156.067 37.9813 152.691 37.9813C150.159 37.9813 148.163 37.2503 146.703 35.7882C145.242 34.3261 144.512 32.4154 144.512 30.0561C144.512 27.2648 145.486 25.1215 147.433 23.6262C149.413 22.1308 152.204 21.3832 155.807 21.3832H159.75V19.4393C159.75 17.5784 159.312 16.2492 158.436 15.4517C157.56 14.6542 156.213 14.2555 154.395 14.2555C152.513 14.2555 150.208 14.7207 147.482 15.6511L146.362 12.3115C149.543 11.1153 152.496 10.5171 155.223 10.5171C158.241 10.5171 160.497 11.2814 161.99 12.81C163.483 14.3053 164.229 16.4486 164.229 19.2399V31.2523ZM153.713 34.5421C156.277 34.5421 158.29 33.1796 159.75 30.4548V24.4237H156.391C151.652 24.4237 149.283 26.2181 149.283 29.8069C149.283 31.3686 149.656 32.5483 150.403 33.3458C151.149 34.1433 152.253 34.5421 153.713 34.5421Z" fill="#422D6D"/>
<path d="M188.179 10.5171C190.516 10.5171 192.334 11.2316 193.632 12.6604C194.963 14.0893 195.628 16.0498 195.628 18.5421V37.3832H191.149V19.19C191.149 17.3292 190.808 16.0166 190.127 15.2523C189.445 14.4881 188.439 14.1059 187.108 14.1059C185.745 14.1059 184.544 14.5047 183.506 15.3022C182.467 16.0997 181.493 17.2461 180.585 18.7414V37.3832H176.106V11.1153H179.952L180.341 15.0031C181.25 13.6075 182.37 12.5109 183.7 11.7134C185.063 10.9159 186.556 10.5171 188.179 10.5171Z" fill="#422D6D"/>
<path d="M228 12.3115C227.026 12.6438 225.955 12.8598 224.787 12.9595C223.618 13.0592 222.19 13.109 220.503 13.109C223.521 14.5047 225.03 16.7144 225.03 19.7383C225.03 22.3634 224.154 24.5068 222.401 26.1682C220.649 27.8297 218.263 28.6604 215.245 28.6604C214.076 28.6604 212.989 28.4943 211.983 28.162C211.593 28.4278 211.285 28.7934 211.058 29.2586C210.831 29.6905 210.717 30.1392 210.717 30.6044C210.717 32.0332 211.837 32.7477 214.076 32.7477H218.166C219.886 32.7477 221.411 33.0633 222.742 33.6947C224.073 34.3261 225.095 35.19 225.809 36.2866C226.556 37.3832 226.929 38.6293 226.929 40.0249C226.929 42.5836 225.907 44.5441 223.862 45.9065C221.817 47.3022 218.831 48 214.904 48C212.145 48 209.954 47.7009 208.332 47.1028C206.741 46.5379 205.605 45.6739 204.924 44.5109C204.242 43.3479 203.901 41.8525 203.901 40.0249H207.942C207.942 41.0883 208.137 41.919 208.526 42.5171C208.916 43.1485 209.614 43.6137 210.62 43.9128C211.626 44.2451 213.054 44.4112 214.904 44.4112C217.598 44.4112 219.513 44.0623 220.649 43.3645C221.817 42.6999 222.401 41.6864 222.401 40.324C222.401 39.0945 221.947 38.1641 221.038 37.5327C220.129 36.9014 218.864 36.5857 217.241 36.5857H213.2C211.025 36.5857 209.37 36.1205 208.234 35.19C207.131 34.2264 206.579 33.0301 206.579 31.6012C206.579 30.7373 206.822 29.9065 207.309 29.109C207.796 28.3115 208.494 27.5971 209.403 26.9657C207.91 26.1682 206.806 25.188 206.092 24.0249C205.41 22.8287 205.07 21.3832 205.07 19.6885C205.07 17.9273 205.492 16.3489 206.335 14.9533C207.212 13.5576 208.396 12.4777 209.889 11.7134C211.415 10.9159 213.103 10.5171 214.953 10.5171C216.965 10.5504 218.653 10.4839 220.016 10.3178C221.379 10.1184 222.499 9.86916 223.375 9.5701C224.284 9.2378 225.387 8.77259 226.686 8.17446L228 12.3115ZM214.953 13.8069C213.265 13.8069 211.95 14.3551 211.009 15.4517C210.1 16.5151 209.646 17.9273 209.646 19.6885C209.646 21.4829 210.117 22.9283 211.058 24.0249C211.999 25.0883 213.33 25.6199 215.05 25.6199C216.803 25.6199 218.133 25.1049 219.042 24.0748C219.983 23.0114 220.454 21.5327 220.454 19.6386C220.454 15.7508 218.62 13.8069 214.953 13.8069Z" fill="#422D6D"/>
<path d="M11.6862 23.2053H7.14158V38.1886H0V0.811372H11.1452C21.028 0.811372 25.9694 4.47157 25.9694 11.792C25.9694 14.2802 25.3562 16.3356 24.1299 17.9584C22.9035 19.5811 20.9919 20.8974 18.395 21.9071L28.1876 38.1886H19.964L11.6862 23.2053ZM7.14158 18.0666H11.578C13.8503 18.0666 15.5636 17.5798 16.7178 16.6061C17.908 15.5964 18.5032 13.9917 18.5032 11.792C18.5032 9.77254 17.89 8.31207 16.6637 7.41054C15.4734 6.47295 13.5798 6.00416 10.9829 6.00416H7.14158V18.0666Z" fill="#422D6D"/>
<path d="M45.5825 0C48.2155 0 50.5059 0.37864 52.4536 1.13592C54.4013 1.8932 56.2227 3.04716 57.9179 4.59778L54.4013 8.65465C53.0667 7.53675 51.7141 6.72538 50.3435 6.22053C49.009 5.71567 47.5663 5.46325 46.0153 5.46325C44.284 5.46325 42.8774 5.85992 41.7953 6.65326C40.7493 7.41054 40.2263 8.49237 40.2263 9.89875C40.2263 10.8363 40.4247 11.6117 40.8214 12.2247C41.2543 12.8377 42.0117 13.4147 43.0938 13.9556C44.1758 14.4965 45.7809 15.0915 47.9089 15.7406C51.5879 16.8946 54.3472 18.337 56.1867 20.068C58.0622 21.7628 59 24.251 59 27.5326C59 29.7684 58.4229 31.7517 57.2687 33.4827C56.1506 35.2136 54.5275 36.5659 52.3995 37.5395C50.2714 38.5132 47.7466 39 44.8251 39C41.9756 39 39.4148 38.5492 37.1425 37.6477C34.9062 36.7101 32.9765 35.448 31.3534 33.8613L35.0324 29.7503C36.4752 30.9764 37.972 31.914 39.523 32.5631C41.0739 33.1761 42.7872 33.4827 44.6627 33.4827C46.7187 33.4827 48.3778 32.9958 49.6402 32.0222C50.9026 31.0485 51.5338 29.6782 51.5338 27.9112C51.5338 26.8294 51.3174 25.9459 50.8846 25.2607C50.4518 24.5395 49.7123 23.9085 48.6664 23.3675C47.6204 22.7906 46.1055 22.1956 44.1217 21.5825C40.1542 20.3564 37.2867 18.8779 35.5194 17.147C33.752 15.4161 32.8683 13.1442 32.8683 10.3315C32.8683 8.27601 33.4094 6.47295 34.4914 4.92233C35.5735 3.37171 37.0703 2.16366 38.9819 1.2982C40.9297 0.432732 43.1298 0 45.5825 0Z" fill="#422D6D"/>
<path d="M93.5835 0C94.57 0 95.4835 0.429741 96.166 1.148C96.73 1.75138 97.1143 2.51126 97.2724 3.33619C97.2724 3.33619 97.3849 4.57985 97.5296 6.07408H94.6694C94.3011 6.07408 94 6.41422 94 6.83334C94 7.25245 94.3011 7.5926 94.6694 7.5926H97.6802C97.7313 8.11952 97.7854 8.64037 97.8351 9.11111H94.6694C94.3011 9.11111 94 9.45126 94 9.87037C94 10.2895 94.3011 10.6296 94.6694 10.6296H98.0105C98.237 12.0601 100.463 13.3037 101.229 13.732L101.384 13.8185C101.727 14.0205 102.332 14.2376 103.079 14.5064C106.122 15.5997 111.538 17.545 111.538 22.7778V26.1307C111.538 26.4845 111.465 26.8216 111.348 27.1299C110.971 28.1047 110.064 28.8382 109.01 28.8519H111.597C112.372 28.8519 113 29.5337 113 30.3704C113 31.2071 112.372 31.8889 111.597 31.8889H108.542C109.268 32.6278 109.766 33.5746 109.972 34.6085C110.177 35.6424 110.082 36.7165 109.698 37.694C109.314 38.6715 108.659 39.5079 107.815 40.0967C106.972 40.6855 105.978 41 104.962 41C103.946 41 102.953 40.6855 102.109 40.0967C101.266 39.5079 100.61 38.6715 100.226 37.694C99.8423 36.7165 99.7471 35.6424 99.953 34.6085C100.159 33.5746 100.656 32.6278 101.382 31.8889H86.6163C87.3421 32.6278 87.8397 33.5746 88.0456 34.6085C88.2514 35.6424 88.1563 36.7165 87.7722 37.694C87.3881 38.6715 86.7325 39.5079 85.8891 40.0967C85.0456 40.6855 84.0524 41 83.0363 41C82.0201 41 81.027 40.6855 80.1835 40.0967C79.34 39.5079 78.6844 38.6715 78.3003 37.694C77.9163 36.7165 77.8211 35.6424 78.027 34.6085C78.2328 33.5746 78.7304 32.6278 79.4562 31.8889H76.4031C75.6285 31.8889 75 31.2071 75 30.3704C75 29.5337 75.6285 28.8519 76.4031 28.8519H77.5928C77.0721 28.8491 76.5643 28.6833 76.1356 28.3761C75.707 28.0689 75.3775 27.6346 75.19 27.1299C75.0667 26.8122 75.0022 26.4732 75 26.1307V3.18889C75 1.54889 76.4776 0.232334 78.3908 0.0425187C78.4551 0.0425187 78.5165 0.0349258 78.5793 0.0273332C78.6413 0.0183854 78.7038 0.0133146 78.7664 0.012148V0H93.5835ZM78.7868 1.5337L78.7445 1.53826H78.7342C78.6503 1.54931 78.5659 1.55691 78.4814 1.56104C77.0491 1.722 76.4615 2.62248 76.4615 3.18889V4.55556H84.0118C84.443 4.55556 84.7865 4.40978 84.994 4.23667C85.2015 4.06508 85.2308 3.91778 85.2308 3.84945V1.51852H80.2279V1.5337H78.7868ZM108.978 27.3333C109.381 27.3333 109.805 27.0418 109.991 26.5665C110.045 26.4281 110.075 26.2803 110.077 26.1307V24.2963H76.4615V26.1307C76.4615 26.2658 76.4908 26.4146 76.5492 26.571L76.5551 26.5862C76.7158 27.0251 77.1222 27.3333 77.6337 27.3333H108.978ZM85.2308 35.6852C85.2308 35.0811 84.9998 34.5017 84.5887 34.0746C84.1775 33.6474 83.6199 33.4074 83.0385 33.4074C82.457 33.4074 81.8994 33.6474 81.4883 34.0746C81.0771 34.5017 80.8462 35.0811 80.8462 35.6852C80.8462 36.2893 81.0771 36.8687 81.4883 37.2958C81.8994 37.723 82.457 37.963 83.0385 37.963C83.6199 37.963 84.1775 37.723 84.5887 37.2958C84.9998 36.8687 85.2308 36.2893 85.2308 35.6852ZM104.962 37.963C105.543 37.963 106.101 37.723 106.512 37.2958C106.923 36.8687 107.154 36.2893 107.154 35.6852C107.154 35.0811 106.923 34.5017 106.512 34.0746C106.101 33.6474 105.543 33.4074 104.962 33.4074C104.38 33.4074 103.822 33.6474 103.411 34.0746C103 34.5017 102.769 35.0811 102.769 35.6852C102.769 36.2893 103 36.8687 103.411 37.2958C103.822 37.723 104.38 37.963 104.962 37.963Z" fill="#FCFCFC"/>
</svg>
