<svg width="48" height="48" viewBox="0 0 48 48" fill="none" xmlns="http://www.w3.org/2000/svg">
<path fill-rule="evenodd" clip-rule="evenodd" d="M22.6498 8.64806C23.1695 8.89784 23.5 9.42341 23.5 10V38C23.5 38.5766 23.1695 39.1022 22.6498 39.352C22.1301 39.6017 21.5132 39.5315 21.063 39.1713L11.4738 31.5H6C5.17157 31.5 4.5 30.8284 4.5 30V18C4.5 17.1716 5.17157 16.5 6 16.5H11.4738L21.063 8.82871C21.5132 8.46851 22.1301 8.39828 22.6498 8.64806ZM20.5 13.121L12.937 19.1713C12.6711 19.3841 12.3406 19.5 12 19.5H7.5V28.5H12C12.3406 28.5 12.6711 28.6159 12.937 28.8287L20.5 34.8791V13.121Z" fill="white"/>
<path fill-rule="evenodd" clip-rule="evenodd" d="M35.9393 9.93938C36.5251 9.35357 37.4748 9.35353 38.0606 9.9393C39.9072 11.7857 41.372 13.9778 42.3714 16.3903C43.3707 18.8029 43.8851 21.3887 43.8851 24C43.8851 26.6113 43.3707 29.1971 42.3714 31.6097C41.372 34.0222 39.9072 36.2143 38.0606 38.0607C37.4748 38.6465 36.5251 38.6464 35.9393 38.0606C35.3535 37.4748 35.3536 36.5251 35.9394 35.9393C37.5074 34.3715 38.7512 32.5101 39.5997 30.4616C40.4483 28.413 40.8851 26.2174 40.8851 24C40.8851 21.7826 40.4483 19.587 39.5997 17.5384C38.7512 15.4899 37.5074 13.6285 35.9394 12.0607C35.3536 11.4749 35.3535 10.5252 35.9393 9.93938ZM28.9394 14.9393C29.5252 14.3535 30.4749 14.3536 31.0607 14.9394C33.4636 17.3424 34.8136 20.6016 34.8136 24C34.8136 27.3984 33.4636 30.6576 31.0607 33.0606C30.4749 33.6464 29.5252 33.6465 28.9394 33.0607C28.3536 32.4749 28.3535 31.5252 28.9393 30.9394C30.7797 29.0989 31.8136 26.6027 31.8136 24C31.8136 21.3973 30.7797 18.9011 28.9393 17.0606C28.3535 16.4748 28.3536 15.5251 28.9394 14.9393Z" fill="white"/>
</svg>
